<?xml version="1.0" encoding="utf-8"?>
<!-- Generator: Adobe Illustrator 19.2.1, SVG Export Plug-In . SVG Version: 6.00 Build 0)  -->
<svg version="1.1"
	 id="svg3858" inkscape:output_extension="org.inkscape.output.svg.inkscape" inkscape:version="0.46" sodipodi:docname="Logo_Luftwaffe1.svg" sodipodi:version="0.32" xmlns:cc="http://creativecommons.org/ns#" xmlns:dc="http://purl.org/dc/elements/1.1/" xmlns:inkscape="http://www.inkscape.org/namespaces/inkscape" xmlns:rdf="http://www.w3.org/1999/02/22-rdf-syntax-ns#" xmlns:sodipodi="http://sodipodi.sourceforge.net/DTD/sodipodi-0.dtd" xmlns:svg="http://www.w3.org/2000/svg"
	 xmlns="http://www.w3.org/2000/svg" xmlns:xlink="http://www.w3.org/1999/xlink" x="0px" y="0px" viewBox="0 0 228 146"
	 style="enable-background:new 0 0 228 146;" xml:space="preserve">
<style type="text/css">
	.st0{fill:#FFFFFF;}
	.st1{fill:#ABB5BC;}
	.st2{fill:#003E81;}
	.st3{fill:#003E81;stroke:#003E81;stroke-width:0.8;}
</style>
<defs>
	
	
		<inkscape:perspective  id="perspective3865" inkscape:persp3d-origin="372.04724 : 350.78739 : 1" inkscape:vp_x="0 : 526.18109 : 1" inkscape:vp_y="0 : 1000 : 0" inkscape:vp_z="744.09448 : 526.18109 : 1" sodipodi:type="inkscape:persp3d">
		</inkscape:perspective>
	
		<inkscape:perspective  id="perspective3876" inkscape:persp3d-origin="372.04724 : 350.78739 : 1" inkscape:vp_x="0 : 526.18109 : 1" inkscape:vp_y="0 : 1000 : 0" inkscape:vp_z="744.09448 : 526.18109 : 1" sodipodi:type="inkscape:persp3d">
		</inkscape:perspective>
</defs>
<sodipodi:namedview  bordercolor="#666666" borderopacity="1.0" gridtolerance="10.0" guidetolerance="10.0" id="base" inkscape:current-layer="layer1" inkscape:cx="103.91371" inkscape:cy="17.95451" inkscape:pageopacity="0.0" inkscape:pageshadow="2" inkscape:window-height="964" inkscape:window-width="1280" inkscape:window-x="-4" inkscape:window-y="-4" inkscape:zoom="1.8" objecttolerance="10.0" pagecolor="#ffffff" showgrid="true">
	<inkscape:grid  enabled="true" id="grid3882" spacingx="-3.9px" spacingy="-3.9px" type="xygrid" visible="true"></inkscape:grid>
</sodipodi:namedview>
<g id="layer1" inkscape:groupmode="layer" inkscape:label="cross">
	<g id="g2528" transform="matrix(0.2661174,0,0,0.2733667,78.336979,7.9755666)">
		<polyline id="polyline2496" class="st0" points="58.3,0.2 83.5,83.5 0,57.8 0,211.9 84,186.2 59.3,269.3 211.2,269.3 187.4,187.4 
			269.3,210.7 269.3,58.3 187.9,81.7 212.5,0.2 58.3,0.2 		"/>
		<g id="g2498">
			<path id="path2500" class="st1" d="M269.3,188.2c-24.4-9.2-65.6-23.6-109.8-28.8c5.2,44.2,19.6,85.4,28.8,109.8H81
				c9.2-24.4,23.6-65.5,28.8-109.8C65.5,164.6,24.4,179,0,188.2V80.9c24.4,9.2,65.5,23.6,109.8,28.8C104.6,65.5,90.2,24.4,81,0
				h107.3c-9.2,24.4-23.6,65.5-28.8,109.8c44.3-5.2,85.4-19.6,109.8-28.8V188.2"/>
		</g>
		<g id="g2502">
			<path id="path2504" class="st2" d="M72.4,72.3C65.8,44.4,55.7,18.7,49.3,0H66c11,28.1,23,68,27,92.9C68.1,88.9,28.1,77,0,65.9
				V49.2C18.7,55.7,44.4,65.7,72.4,72.3"/>
		</g>
		<g id="g2506">
			<path id="path2508" class="st2" d="M72.4,196.8c-28,6.6-53.7,16.7-72.4,23.1v-16.7c28.1-11,68.1-23,92.9-26.9
				C89,201.1,77,241,66,269.1H49.3C55.7,250.5,65.8,224.7,72.4,196.8"/>
		</g>
		<path id="path2512" class="st2" d="M196.9,196.8c6.6,28,16.7,53.7,23.1,72.3h-16.7c-11-28.1-23-68-27-92.9
			c24.9,3.9,64.8,15.9,93,26.9v16.7C250.6,213.5,224.9,203.4,196.9,196.8"/>
		<g id="g2514">
			<path id="path2516" class="st2" d="M196.9,72.3c28-6.6,53.7-16.7,72.4-23.1v16.7c-28.1,11-68.1,23-93,27
				c4-24.8,15.9-64.8,27-92.9H220C213.6,18.7,203.5,44.4,196.9,72.3"/>
		</g>
	</g>
	<path id="flowRoot2515" class="st3" d="M29.3,131.7H7.8v-29.8h7.7v24h13.8V131.7z M55.9,131.7h-7.2v-2.5c-1.3,1-2.6,1.8-3.7,2.3
		c-1.1,0.5-2.4,0.8-4,0.8c-2.5,0-4.4-0.7-5.7-2.1c-1.3-1.4-2-3.5-2-6.3v-14.6h7.2v11.2c0,1.1,0,2.1,0.1,2.8c0.1,0.8,0.2,1.4,0.5,1.9
		c0.3,0.5,0.6,0.9,1.2,1.1c0.5,0.2,1.2,0.3,2.2,0.3c0.6,0,1.3-0.1,2-0.3c0.7-0.2,1.5-0.6,2.2-1v-15.9h7.2V131.7z M77.3,105.8h-0.5
		c-0.3-0.1-0.7-0.2-1.3-0.3c-0.5-0.1-1.1-0.2-1.7-0.2c-1.4,0-2.4,0.3-2.9,0.8c-0.5,0.5-0.8,1.5-0.8,2.9v0.2h5.6v4.9h-5.3v17.6h-7.2
		v-17.6h-3.1v-4.9h3.1v-0.6c0-2.7,0.7-4.8,2.2-6.2c1.5-1.4,3.7-2.1,6.6-2.1c1.1,0,2,0,2.9,0.1c0.9,0.1,1.6,0.2,2.3,0.3V105.8z
		 M94.4,131.5c-0.8,0.2-1.6,0.4-2.5,0.5c-0.9,0.1-1.9,0.2-3.2,0.2c-2.8,0-4.9-0.6-6.3-1.7c-1.4-1.1-2.1-3.1-2.1-5.8v-10.5h-3v-4.9h3
		v-6.4h7.2v6.4h6.7v4.9h-6.7v8c0,0.8,0,1.5,0,2.1c0,0.6,0.1,1.1,0.3,1.6c0.2,0.5,0.5,0.8,1,1.1c0.5,0.3,1.2,0.4,2.1,0.4
		c0.4,0,0.9-0.1,1.5-0.2c0.6-0.2,1-0.3,1.3-0.4h0.6V131.5z M134.5,109.2l-7,22.5h-7.6l-4.6-15.2l-4.5,15.2h-7.7l-6.9-22.5h7.6
		l3.8,15.5l4.8-15.5h6.4l4.6,15.5l3.8-15.5H134.5z M152.5,125.8v-4.7c-1,0.1-2,0.2-3.2,0.3c-1.1,0.1-2,0.3-2.6,0.5
		c-0.7,0.2-1.3,0.6-1.7,1c-0.4,0.4-0.6,1-0.6,1.7c0,0.5,0,0.8,0.1,1.1c0.1,0.3,0.3,0.6,0.6,0.8c0.3,0.3,0.7,0.5,1.1,0.6
		c0.4,0.1,1.1,0.2,2,0.2c0.7,0,1.5-0.1,2.2-0.4C151.3,126.7,151.9,126.3,152.5,125.8L152.5,125.8z M152.5,129.3
		c-0.4,0.3-0.9,0.6-1.4,1.1c-0.6,0.4-1.1,0.7-1.6,1c-0.7,0.3-1.4,0.6-2.2,0.7c-0.8,0.2-1.6,0.2-2.5,0.2c-2.1,0-3.9-0.7-5.4-2
		s-2.2-3-2.2-5.1c0-1.6,0.4-3,1.1-4c0.7-1,1.8-1.9,3.1-2.5c1.3-0.6,3-1,5-1.3c2-0.3,4-0.4,6.1-0.6v-0.1c0-1.2-0.5-2.1-1.5-2.6
		c-1-0.5-2.5-0.7-4.5-0.7c-1.2,0-2.5,0.2-3.8,0.6c-1.3,0.4-2.3,0.7-2.9,1h-0.7v-5.4c0.8-0.2,2-0.4,3.7-0.7c1.7-0.3,3.4-0.4,5.2-0.4
		c4.1,0,7.1,0.6,8.9,1.9c1.8,1.3,2.7,3.2,2.7,5.9v15.3h-7.1V129.3z M180.8,105.8h-0.5c-0.3-0.1-0.7-0.2-1.3-0.3
		c-0.5-0.1-1.1-0.2-1.7-0.2c-1.4,0-2.4,0.3-2.9,0.8c-0.5,0.5-0.8,1.5-0.8,2.9v0.2h5.6v4.9H174v17.6h-7.2v-17.6h-3.1v-4.9h3.1v-0.6
		c0-2.7,0.7-4.8,2.2-6.2c1.5-1.4,3.7-2.1,6.6-2.1c1.1,0,2,0,2.9,0.1c0.9,0.1,1.6,0.2,2.3,0.3V105.8z M198.1,105.8h-0.5
		c-0.3-0.1-0.7-0.2-1.3-0.3c-0.5-0.1-1.1-0.2-1.7-0.2c-1.4,0-2.4,0.3-2.9,0.8c-0.5,0.5-0.8,1.5-0.8,2.9v0.2h5.6v4.9h-5.3v17.6h-7.2
		v-17.6H181v-4.9h3.1v-0.6c0-2.7,0.7-4.8,2.2-6.2c1.5-1.4,3.7-2.1,6.6-2.1c1.1,0,2,0,2.9,0.1c0.9,0.1,1.6,0.2,2.3,0.3V105.8z
		 M223,121.7h-16.5c0.1,1.8,0.8,3.1,2,4c1.2,0.9,3.1,1.4,5.5,1.4c1.5,0,3-0.3,4.4-0.8c1.4-0.5,2.6-1.1,3.4-1.8h0.8v5.8
		c-1.6,0.7-3.2,1.1-4.6,1.4c-1.4,0.3-3,0.4-4.8,0.4c-4.5,0-8-1-10.4-3c-2.4-2-3.6-4.9-3.6-8.7c0-3.7,1.1-6.6,3.4-8.8
		c2.3-2.2,5.4-3.3,9.4-3.3c3.7,0,6.4,0.9,8.2,2.8c1.8,1.8,2.8,4.5,2.8,8V121.7z M215.8,117.5c0-1.5-0.4-2.6-1.1-3.4
		c-0.7-0.8-1.8-1.1-3.3-1.1c-1.4,0-2.5,0.4-3.4,1.1c-0.9,0.7-1.4,1.9-1.5,3.5H215.8z"/>
</g>
</svg>
